<?xml version="1.0" standalone="no"?>
<!DOCTYPE svg PUBLIC "-//W3C//DTD SVG 20010904//EN"
 "http://www.w3.org/TR/2001/REC-SVG-20010904/DTD/svg10.dtd">
<svg version="1.0" xmlns="http://www.w3.org/2000/svg"
 width="530.000000pt" height="530.000000pt" viewBox="0 0 530.000000 530.000000"
 preserveAspectRatio="xMidYMid meet">
<metadata>
Created by potrace 1.14, written by Peter Selinger 2001-2017
</metadata>
<g transform="translate(0.000000,530.000000) scale(0.100000,-0.100000)"
fill="#000000" stroke="none">
<path d="M100 5294 c0 -3 57 -96 128 -205 70 -110 166 -261 215 -337 112 -176
219 -343 282 -440 28 -43 70 -109 94 -148 25 -38 68 -105 97 -149 28 -44 124
-195 214 -335 89 -140 179 -280 199 -310 20 -30 41 -62 46 -72 6 -10 52 -84
104 -164 l94 -145 71 108 c39 60 104 160 145 223 41 63 113 174 160 245 421
647 433 667 422 689 -15 27 -19 34 -131 216 -52 85 -99 163 -105 172 -28 48
-130 214 -135 218 -3 3 -12 18 -20 34 -29 56 -35 66 -42 66 -5 0 -8 4 -8 9 0
7 -96 171 -130 221 -5 8 -23 36 -40 62 l-29 47 -816 0 c-448 0 -815 -2 -815
-5z"/>
<path d="M3591 5290 c-4 -3 -45 -63 -91 -135 -46 -71 -109 -168 -139 -215 -31
-47 -60 -93 -66 -102 -9 -16 -168 -263 -412 -637 -45 -69 -106 -164 -136 -211
-88 -137 -196 -304 -207 -320 -6 -8 -58 -89 -116 -180 -59 -91 -132 -203 -162
-250 -30 -47 -75 -116 -100 -155 -79 -123 -128 -197 -208 -320 -43 -66 -86
-135 -96 -153 l-18 -33 47 -72 c26 -39 141 -215 255 -390 114 -175 208 -322
208 -327 0 -5 3 -10 8 -12 4 -1 23 -28 42 -58 19 -30 38 -59 42 -65 19 -24
199 -301 205 -315 4 -8 9 -17 13 -20 3 -3 21 -30 40 -60 19 -30 38 -56 42 -58
5 -2 8 -8 8 -13 0 -5 44 -75 98 -157 53 -81 103 -160 111 -175 8 -15 18 -27
23 -27 4 0 8 -5 8 -10 0 -6 5 -16 10 -23 10 -12 82 -121 281 -430 60 -92 139
-212 175 -267 l66 -99 794 0 794 0 -20 37 c-11 20 -51 83 -88 140 -37 56 -150
232 -252 390 -101 158 -188 289 -192 290 -4 2 -8 8 -8 12 0 5 -39 69 -86 142
-48 73 -103 158 -122 188 -19 30 -57 87 -84 127 -26 40 -48 75 -48 77 0 6 -62
99 -71 106 -3 3 -8 10 -10 16 -2 6 -60 97 -129 203 -69 106 -132 203 -140 217
-8 13 -62 97 -120 186 -58 89 -107 167 -109 172 -2 6 -7 13 -10 16 -12 9 -171
261 -171 270 0 4 3 10 8 12 7 3 55 74 77 113 6 11 46 74 89 140 44 66 113 172
154 235 42 63 93 141 114 173 21 32 38 62 38 67 0 5 4 10 8 12 7 3 87 125 118
178 5 10 18 29 27 42 10 13 42 61 71 108 30 47 58 90 63 96 4 5 13 18 18 27 6
10 104 163 220 340 115 177 244 376 287 442 42 66 81 125 85 131 4 5 13 18 18
27 37 63 241 373 247 375 5 2 8 7 8 12 0 5 22 41 48 82 27 40 51 78 54 83 6
10 -1596 15 -1611 5z"/>
<path d="M1501 2048 c-44 -67 -124 -192 -178 -275 -54 -84 -219 -341 -368
-570 -148 -229 -272 -421 -274 -427 -2 -6 -8 -15 -13 -21 -19 -21 -158 -239
-158 -247 0 -4 -4 -8 -10 -8 -5 0 -10 -4 -10 -9 0 -6 -42 -74 -93 -153 -108
-165 -200 -308 -210 -325 -6 -9 185 -12 827 -12 l834 0 36 61 c20 34 36 65 36
69 0 5 4 9 9 9 5 0 11 8 15 17 3 10 10 25 16 33 22 33 140 231 140 236 0 3 5
10 10 17 6 7 72 114 146 239 l136 227 -31 45 c-17 24 -31 47 -31 51 0 6 -41
67 -51 75 -3 3 -8 10 -10 16 -2 6 -38 64 -79 128 -143 221 -220 341 -230 356
-6 8 -34 52 -63 97 -28 46 -97 152 -152 238 -55 85 -114 178 -131 206 l-32 51
-81 -124z"/>
</g>
</svg>
